<svg width="29" height="30" viewBox="0 0 29 30" fill="none" xmlns="http://www.w3.org/2000/svg">
<g clip-path="url(#clip0_2_22)">
<path d="M29 22.2501C29 23.1046 28.6605 23.9242 28.0562 24.5285C27.4519 25.1328 26.6324 25.4723 25.7778 25.4723H3.22222C2.36764 25.4723 1.54805 25.1328 0.943767 24.5285C0.339483 23.9242 0 23.1046 0 22.2501V7.75005C0 6.89547 0.339483 6.07588 0.943767 5.4716C1.54805 4.86732 2.36764 4.52783 3.22222 4.52783H25.7778C26.6324 4.52783 27.4519 4.86732 28.0562 5.4716C28.6605 6.07588 29 6.89547 29 7.75005V22.2501Z" fill="#75AADB"/>
<path d="M0 10.9722H29V19.0277H0V10.9722Z" fill="#EEEEEE"/>
<path d="M14.5 10.9722L14.8931 13.0247L16.0418 11.2791L15.6189 13.3252L17.3476 12.1515L16.1739 13.881L18.2209 13.4589L16.4752 14.6068L18.5278 14.9999L16.4752 15.3931L18.2209 16.5418L16.1739 16.1189L17.3476 17.8476L15.6189 16.6739L16.0418 18.7208L14.8931 16.9752L14.5 19.0277L14.1069 16.9752L12.959 18.7208L13.3811 16.6739L11.6516 17.8476L12.8252 16.1189L10.7791 16.5418L12.5248 15.3931L10.4722 14.9999L12.5248 14.6068L10.7791 13.4589L12.8252 13.881L11.6516 12.1515L13.3811 13.3252L12.959 11.2791L14.1069 13.0247L14.5 10.9722Z" fill="#FCBF49"/>
<path d="M14.5 12.0436L14.6949 13.0626L14.7884 13.5499L15.0615 13.1359L15.6318 12.2691L15.4216 13.2849L15.3209 13.7715L15.7317 13.4928L16.5904 12.9103L16.008 13.7691L15.7293 14.1799L16.215 14.0792L17.2316 13.8698L16.3649 14.4401L15.95 14.7116L16.4374 14.805L17.4564 14.9999L16.4374 15.1949L15.95 15.2883L16.3641 15.5614L17.2308 16.1318L16.2142 15.9215L15.7277 15.8208L16.0064 16.2316L16.5888 17.0896L15.7309 16.5071L15.3201 16.2284L15.4207 16.715L15.631 17.7316L15.0607 16.8648L14.7884 16.4499L14.6949 16.9373L14.5 17.9563L14.3051 16.9373L14.2116 16.4499L13.9385 16.8648L13.3682 17.7316L13.5776 16.715L13.6783 16.2292L13.2675 16.5079L12.4088 17.0904L12.9912 16.2316L13.2699 15.8208L12.7834 15.9215L11.7676 16.1318L12.6343 15.5614L13.0484 15.2883L12.561 15.1949L11.5436 14.9999L12.5626 14.805L13.05 14.7116L12.6351 14.4385L11.7684 13.8681L12.7842 14.0776L13.2699 14.1783L12.9912 13.7674L12.408 12.9087L13.2667 13.4919L13.6775 13.7707L13.5768 13.2849L13.3674 12.2691L13.9377 13.1359L14.2108 13.5508L14.3042 13.0634L14.5 12.0436ZM14.5 10.9722L14.1069 13.0247L12.959 11.2791L13.3811 13.326L11.6516 12.1523L12.8252 13.8818L10.7791 13.4597L12.5248 14.6076L10.4722 14.9999L12.5248 15.3931L10.7791 16.5418L12.8252 16.1189L11.6516 17.8476L13.3811 16.6739L12.959 18.7208L14.1069 16.9752L14.5 19.0277L14.8931 16.9752L16.0418 18.7208L15.6189 16.6739L17.3476 17.8476L16.1739 16.1189L18.2209 16.5418L16.4752 15.3931L18.5278 14.9999L16.4752 14.6068L18.2209 13.4589L16.1739 13.881L17.3476 12.1515L15.6189 13.3252L16.0418 11.2783L14.8931 13.0239L14.5 10.9722Z" fill="#843511"/>
<path d="M14.5 16.6111C15.3898 16.6111 16.1111 15.8898 16.1111 15C16.1111 14.1102 15.3898 13.3889 14.5 13.3889C13.6102 13.3889 12.8889 14.1102 12.8889 15C12.8889 15.8898 13.6102 16.6111 14.5 16.6111Z" fill="#FCBF49"/>
<path d="M14.5 16.7118C13.5559 16.7118 12.7882 15.9441 12.7882 15C12.7882 14.0559 13.5559 13.2882 14.5 13.2882C15.4441 13.2882 16.2118 14.0559 16.2118 15C16.2118 15.9441 15.4441 16.7118 14.5 16.7118ZM14.5 13.4896C13.6671 13.4896 12.9896 14.1671 12.9896 15C12.9896 15.833 13.6671 16.5104 14.5 16.5104C15.333 16.5104 16.0104 15.833 16.0104 15C16.0104 14.1671 15.333 13.4896 14.5 13.4896Z" fill="#843511"/>
<path d="M14.3397 14.8179C14.3397 14.9428 14.1294 15.0435 13.8701 15.0435C13.6099 15.0435 13.3996 14.9428 13.3996 14.8179C13.3996 14.693 13.6099 14.5924 13.8701 14.5924C14.1294 14.5924 14.3397 14.693 14.3397 14.8179ZM15.5907 14.7986C15.5907 14.6689 15.3764 14.5634 15.1122 14.5634C14.848 14.5634 14.6337 14.6681 14.6337 14.7986C14.6337 14.9291 14.848 15.0338 15.1122 15.0338C15.3773 15.0338 15.5907 14.9283 15.5907 14.7986Z" fill="#C16540"/>
<path d="M14.0674 15.704C14.0674 15.6025 14.2656 15.5195 14.5089 15.5195C14.753 15.5195 14.9503 15.6017 14.9503 15.704C14.9503 15.8055 14.7522 15.8885 14.5089 15.8885C14.2648 15.8885 14.0674 15.8055 14.0674 15.704Z" fill="#ED8662"/>
</g>
<defs>
<clipPath id="clip0_2_22">
<rect width="29" height="29" fill="white" transform="translate(0 0.5)"/>
</clipPath>
</defs>
</svg>
