<?xml version="1.0" encoding="utf-8"?>
<!DOCTYPE svg PUBLIC "-//W3C//DTD SVG 1.0//EN" "http://www.w3.org/TR/2001/REC-SVG-20010904/DTD/svg10.dtd">
<svg version="1.0" xmlns="http://www.w3.org/2000/svg" width="819px" height="468px" viewBox="0 0 819 468" preserveAspectRatio="xMidYMid meet">
 <g fill="#ffffff">
  <path d="M237 426.8 c-4.1 -0.5 -11 -0.7 -15.3 -0.6 -5.3 0.2 -7.3 0 -6.4 -0.7 0.7 -0.5 5.2 -4 9.9 -7.8 16.1 -12.6 27.9 -16 41.6 -11.8 3.8 1.1 8 2.9 9.2 3.9 l2.3 1.9 -5.4 5.5 c-8.5 8.7 -19.5 11.6 -35.9 9.6z"/>
  <path d="M571.5 427 c-8.2 -1.2 -15.1 -4.7 -20.1 -10.3 l-4.6 -5.1 2.2 -1.8 c1.2 -1 5.4 -2.8 9.2 -3.9 13.7 -4.2 25.5 -0.8 41.6 11.8 4.7 3.8 9.2 7.3 9.9 7.8 0.9 0.7 -1.9 1 -8.9 1 -5.7 0 -13.4 0.3 -17.3 0.6 -3.8 0.4 -9.2 0.3 -12 -0.1z"/>
  <path d="M189 407.4 c-3 -0.7 -9.8 -1.7 -14.9 -2 l-9.5 -0.7 4.5 -3.9 c5.5 -4.8 16.4 -10.2 24.9 -12.3 12.2 -3.1 25.9 -0.8 34.5 5.8 1.9 1.5 1.9 1.7 -2.9 6.1 -6.5 6.1 -13.4 8.6 -23.4 8.5 -4.2 0 -10.2 -0.7 -13.2 -1.5z"/>
  <path d="M609.4 406.9 c-2.9 -1.1 -7.4 -4 -10 -6.5 -4.8 -4.4 -4.8 -4.6 -2.9 -6.1 8.6 -6.6 22.3 -8.9 34.5 -5.8 8.5 2.1 19.4 7.5 24.9 12.3 l4.5 3.9 -9.5 0.6 c-5.1 0.4 -12.1 1.4 -15.4 2.2 -8.5 2.1 -19.8 1.8 -26.1 -0.6z"/>
  <path d="M264 396.6 c-11.9 -3.2 -20.7 -10.8 -27.4 -23.5 -3.8 -7.4 -7.6 -18.8 -7.6 -23.2 l0 -2.8 7.8 5.3 c4.2 2.9 10.5 6.8 14 8.6 7.9 4.2 14.5 9.9 17.8 15.5 4.3 7.5 5.4 21.6 1.5 21.4 -0.9 0 -3.6 -0.6 -6.1 -1.3z"/>
  <path d="M552.7 395.1 c-0.9 -4.5 1 -13.8 3.7 -18.6 3.3 -5.6 9.9 -11.3 17.8 -15.5 3.5 -1.8 9.8 -5.7 14.1 -8.6 l7.7 -5.3 0 2.8 c0 4.4 -3.8 15.8 -7.6 23.2 -6.8 13 -16.5 21.1 -28.5 23.8 -6.3 1.5 -6.6 1.4 -7.2 -1.8z"/>
  <path d="M154 383.1 c-3 -1 -8 -2.9 -11 -4.3 -3 -1.4 -8.5 -3.5 -12.3 -4.7 -3.7 -1.3 -6.7 -2.5 -6.7 -2.7 0 -1 12.7 -6.4 18.5 -7.9 3.3 -0.8 10.1 -1.5 15.7 -1.5 12.4 0 18.6 2.2 26.3 9.2 l5.6 5 -3.3 2.4 c-8.4 6.3 -21.8 8.1 -32.8 4.5z"/>
  <path d="M645.9 382.7 c-3.2 -1.3 -6.9 -3.3 -8.3 -4.4 l-2.6 -2.1 5.5 -5 c7.7 -7 13.9 -9.2 26.3 -9.2 5.6 0 12.4 0.7 15.7 1.5 6.5 1.7 19.1 7.2 18.3 8 -0.3 0.3 -3.6 1.6 -7.4 2.9 -3.8 1.4 -10.9 4.1 -15.9 6.2 -7.5 3.1 -10.4 3.8 -17.5 4.1 -7.2 0.3 -9.4 0 -14.1 -2z"/>
  <path d="M211.2 376.1 c-12.3 -8 -16.7 -18.6 -16.6 -39.6 0 -7.1 0.5 -14.1 1 -15.4 1 -2.3 1.2 -2.2 4.3 3.3 1.8 3.2 6.2 9.6 9.8 14.3 3.6 4.8 7.4 10.7 8.5 13.2 3.5 7.7 3.6 26.7 0.2 27.8 -0.6 0.2 -3.8 -1.4 -7.2 -3.6z"/>
  <path d="M605.2 378.3 c-0.4 -1 -0.7 -6.3 -0.7 -11.8 0.1 -12.1 1.4 -15.3 10.8 -27.8 3.6 -4.7 8 -11.1 9.8 -14.3 3.1 -5.5 3.3 -5.6 4.3 -3.3 0.5 1.3 1 8.3 1 15.4 0.1 21 -4.3 31.6 -16.6 39.5 -6.9 4.5 -7.6 4.7 -8.6 2.3z"/>
  <path d="M123.2 352.5 c-6.6 -1.8 -9.8 -3.5 -19.2 -9.9 -4.1 -2.8 -9.6 -6.2 -12.2 -7.6 -2.7 -1.4 -4.8 -2.8 -4.8 -3.2 0 -1.3 10.1 -3.8 17.9 -4.4 14 -1.2 28 2.4 36 9.2 3.4 2.8 9.1 10 9.1 11.4 0 0.4 -2.2 1.7 -5 2.9 -6.6 2.8 -15.1 3.5 -21.8 1.6z"/>
  <path d="M170.3 348.7 c-6.2 -6.5 -8.8 -11.4 -10.2 -19.2 -2.1 -11.3 -0.5 -25.7 4 -36.2 l2 -4.7 7 14.4 c8.5 17.5 10.4 24 9.6 33.3 -0.6 6.7 -4.6 17.7 -6.5 17.7 -0.5 0 -3.2 -2.4 -5.9 -5.3z"/>
  <path d="M645.4 348.5 c-3.3 -7.2 -4.1 -17.1 -2.1 -25 0.9 -3.3 4.7 -12.5 8.6 -20.5 l7 -14.4 2 4.7 c2.6 6.1 5.1 18.2 5.1 25 0 7.4 -1.8 16.4 -4.2 21.1 -2.1 4.1 -11.4 14.6 -13 14.6 -0.5 0 -2 -2.5 -3.4 -5.5z"/>
  <path d="M686.1 353.1 c-4.4 -1.2 -11.1 -4.2 -11.1 -5.1 0 -1.4 5.8 -8.6 9.1 -11.4 8 -6.8 22 -10.4 36 -9.2 7.8 0.6 17.9 3.1 17.9 4.4 0 0.4 -2.1 1.8 -4.7 3.2 -2.6 1.4 -8.9 5.3 -13.9 8.6 -5.1 3.4 -11.4 6.9 -14.1 7.8 -5.9 2 -14.7 2.8 -19.2 1.7z"/>
  <path d="M103.8 316.7 c-6.7 -1.9 -12.1 -5.8 -21.3 -15.2 -4.4 -4.5 -10 -9.8 -12.5 -11.8 l-4.5 -3.7 11.7 0 c6.4 0 14.1 0.5 17 1.1 12.7 2.7 23 10.4 28.7 21.6 l3 6 -4 1.2 c-6.3 1.9 -13 2.2 -18.1 0.8z"/>
  <path d="M705.5 316.5 c-2.7 -0.8 -5.3 -1.4 -5.8 -1.5 -1.7 -0.1 5.8 -12.6 10.1 -16.9 8.8 -8.8 19.2 -12.1 38 -12.1 l11.7 0 -4.5 3.7 c-2.5 2.1 -8.6 7.8 -13.5 12.8 -13.4 13.5 -23.8 17.6 -36 14z"/>
  <path d="M543.8 315.4 c-5 -1.5 -9.8 -6.2 -9.8 -9.5 0 -3.2 4.2 -2.3 6.5 1.4 2.8 4.4 7.9 5.9 18.2 5.5 10.5 -0.4 13.7 -2.4 14.1 -9 0.4 -6.6 -1.2 -7.6 -16.2 -9.9 -17.9 -2.7 -21.1 -4.3 -22.3 -11.2 -0.8 -5.4 2 -10.2 7.5 -12.9 3.8 -1.8 6.4 -2.2 13.7 -2.2 13.1 -0.1 18.7 2.5 21.4 9.7 1 2.6 0.9 2.7 -1.8 2.7 -2.2 0 -3 -0.6 -3.5 -2.5 -1.3 -5 -12.5 -7.7 -22.8 -5.6 -6.6 1.4 -9.2 3.9 -9.2 8.7 0 5.8 2.4 7.2 15.4 8.9 19.8 2.6 23.3 4.7 23.4 13.4 0.1 6.5 -2.5 10.1 -9 12.3 -6.1 2.1 -19.1 2.2 -25.6 0.2z"/>
  <path d="M137.4 310.5 c-4.8 -10.9 -5.6 -21.1 -2.8 -33.8 1.9 -8.5 7.2 -20.3 10.7 -23.5 l2.4 -2.3 0.7 7 c0.3 3.9 1.3 10.1 2.2 13.8 2.3 9.5 2.3 24.4 0 31.2 -1.7 5.1 -7.7 13.1 -9.8 13.1 -0.5 0 -2 -2.5 -3.4 -5.5z"/>
  <path d="M247.2 315.1 c0.2 -0.5 5 -11.3 10.7 -24 l10.5 -23.2 3.9 0.3 4 0.3 10.3 22.9 c5.7 12.6 10.4 23.3 10.4 23.8 0 0.4 -1.1 0.8 -2.4 0.8 -1.9 0 -2.8 -1.2 -5.4 -7 l-3.1 -7 -14.1 0 -14.2 0 -3.1 7 c-2.6 5.7 -3.6 7 -5.5 7 -1.3 0 -2.2 -0.4 -2 -0.9z m36.6 -18 c-2.2 -5.8 -11.3 -25.1 -11.8 -25.1 -0.6 0 -12 24.2 -12 25.5 0 0.3 5.4 0.5 12.1 0.5 6.6 0 11.9 -0.4 11.7 -0.9z"/>
  <path d="M309.1 312.3 c-8 -30.8 -11.1 -43.1 -11.1 -43.6 0 -0.4 1.1 -0.7 2.5 -0.7 1.4 0 2.5 0.2 2.5 0.4 0 1.2 11 41.9 11.4 42.3 0.7 0.8 0.7 0.9 13.2 -40.9 0.4 -1.3 1.6 -1.8 3.9 -1.8 3.9 0 3.3 -1.4 12.1 29.2 2.1 7.6 4.2 13.8 4.5 13.8 0.3 0 3.2 -9.7 6.4 -21.5 5.4 -20 5.9 -21.5 8 -21.5 l2.3 0 -2.4 8.8 c-1.3 4.8 -4.3 15.6 -6.6 24 l-4.1 15.2 -3.7 0 -3.7 0 -6.3 -21.5 c-3.5 -11.9 -6.7 -21.2 -7 -20.8 -0.4 0.4 -2.4 6.4 -4.4 13.3 -2.1 6.9 -4.9 16.2 -6.2 20.8 l-2.5 8.2 -3.9 0 c-3.7 0 -4 -0.2 -4.9 -3.7z"/>
  <path d="M365.4 314.3 c0.3 -1 5 -11.7 10.5 -23.8 l9.9 -22 3.9 -0.3 4 -0.3 10.2 22.6 c5.6 12.5 10.5 23.3 10.8 24.1 0.4 1 -0.2 1.4 -2 1.4 -2.2 0 -3 -1 -5.8 -7 l-3.2 -7 -14.2 0 -14.1 0 -3.1 7 c-2.5 5.5 -3.6 7 -5.3 7 -1.6 0 -2 -0.5 -1.6 -1.7z m34 -22 c-1.4 -3.2 -4 -9.1 -5.7 -13 -1.8 -4 -3.6 -7.1 -4.1 -7 -0.9 0.3 -11.6 23.2 -11.6 24.9 0 0.4 5.4 0.8 12 0.8 l12 0 -2.6 -5.7z"/>
  <path d="M423 291.9 l0 -24.1 17.3 0.4 c19.2 0.3 21.1 0.9 24.1 7.3 3.4 7 0.9 15.4 -5.6 19 l-3.7 2.1 4.9 7.7 c7.6 11.9 7.6 11.7 4.3 11.7 -2.4 -0.1 -3.6 -1.3 -9.1 -10 l-6.4 -10 -10.4 0 -10.4 0 0 10 0 10 -2.5 0 -2.5 0 0 -24.1z m35 -2.4 c1.9 -2 2.4 -3.7 2.4 -7.7 0 -4.3 -0.4 -5.4 -2.8 -7.4 -2.6 -2.3 -3.5 -2.4 -16.2 -2.4 l-13.4 0 0 10 0 10 13.8 0 c13.5 0 13.9 -0.1 16.2 -2.5z"/>
  <path d="M477 292 l0 -24 14.8 0 c18.2 0 23.4 1.3 28.5 6.9 6.3 7 7.4 21.3 2.4 31.1 -1.8 3.4 -3.5 5.1 -7.6 7.2 -5.2 2.7 -5.7 2.8 -21.7 2.8 l-16.4 0 0 -24z m35 17.8 c6.6 -3.4 8.3 -7.1 8.3 -17.8 0 -10.1 -1.7 -14.1 -7.3 -17.5 -2.9 -1.6 -5.7 -2 -17.2 -2.3 l-13.8 -0.4 0 20.1 0 20.1 12.8 0 c11.3 0 13.3 -0.3 17.2 -2.2z"/>
  <path d="M679.8 312.2 c-5.2 -5.7 -7.2 -12.7 -7.1 -24.2 0 -5.2 0.8 -12.6 1.7 -16.3 0.9 -3.7 1.9 -9.9 2.2 -13.8 l0.7 -7 2.4 2.3 c6.9 6.5 12.9 26.5 12.1 40.2 -0.6 8.2 -4.9 21.5 -7.4 22.3 -0.6 0.2 -2.7 -1.4 -4.6 -3.5z"/>
  <path d="M90.5 277 c-9.5 -2.3 -18.9 -10 -25.2 -20.4 -4.2 -7 -8.4 -12.7 -12.6 -17.3 l-2.9 -3.1 4.3 0.5 c12.1 1.4 26.6 7.3 35.2 14.4 6.4 5.3 11.5 14.2 13.1 23.2 l0.7 3.7 -4.8 -0.1 c-2.6 -0.1 -6.1 -0.4 -7.8 -0.9z"/>
  <path d="M722.6 274.4 c1.6 -9.1 6.6 -18 13.1 -23.3 8.6 -7.1 23.1 -13 35.2 -14.4 l4.3 -0.5 -2.9 3.1 c-4.2 4.6 -8.4 10.3 -12.6 17.3 -4.6 7.6 -13.2 15.8 -19.4 18.5 -2.6 1.1 -7.9 2.3 -11.6 2.6 l-6.8 0.6 0.7 -3.9z"/>
  <path d="M114 265.3 c-3.1 -8.1 -3.1 -17.8 -0.2 -26.5 3.6 -10.3 12.9 -23.6 20.2 -28.8 l2.7 -1.9 -0.8 4.2 c-0.4 2.3 -0.8 9.5 -0.9 15.9 0 13 -1.1 19.7 -4.5 27.5 -2.3 5.1 -11.1 15.3 -13.2 15.3 -0.7 0 -2.1 -2.6 -3.3 -5.7z"/>
  <path d="M701.7 265.9 c-8.6 -8.9 -11.7 -18.8 -11.7 -37.7 -0.1 -6.4 -0.5 -13.6 -0.9 -15.9 l-0.8 -4.2 2.7 1.9 c7.3 5.2 16.6 18.5 20.2 28.8 2.9 8.7 2.9 18.4 -0.2 26.5 -1.2 3.1 -2.6 5.7 -3.3 5.7 -0.6 0 -3.3 -2.3 -6 -5.1z"/>
  <path d="M315.7 237.5 c-14.9 -2.8 -30.4 -11.1 -37 -19.8 -3.7 -4.9 -8.2 -14.7 -10.4 -22.7 -2.6 -9.3 -2.6 -40.6 0 -50 2.1 -8 7.6 -19.3 11.7 -24.2 6.7 -8.1 21.3 -15.6 35.8 -18.4 8.7 -1.6 31.9 -1.8 41.2 -0.3 22.4 3.6 35.7 13.1 41.6 29.7 3.6 10.4 3.7 10.2 -5.5 10.2 l-7.9 0 -0.7 -3.2 c-2.7 -12.3 -11.1 -19.8 -26.2 -23.5 -9.5 -2.2 -32.5 -2.3 -41.6 0 -18.7 4.7 -30 15.6 -33.6 32.5 -1.7 8.1 -1.4 37.6 0.4 44.7 3.4 13.1 9.5 21.2 20.3 26.8 9.7 5.1 18.1 6.8 33.2 6.8 19.1 0 31.4 -3.1 39.1 -9.9 3.5 -3 8.9 -12.6 8.9 -15.6 0 -1.3 1.4 -1.6 8.1 -1.6 l8.2 0 -0.7 3.3 c-0.3 1.7 -2.2 6.4 -4.1 10.4 -6.1 12.3 -16.7 19.9 -33.5 23.8 -10.4 2.4 -36.8 3 -47.3 1z"/>
  <path d="M86.3 236.6 c-12.5 -4 -18.4 -11.6 -22.9 -29.9 -1.4 -5.5 -3.8 -13.1 -5.4 -16.9 l-2.9 -6.8 3.7 1.5 c12.6 5.3 26 17.2 31.2 27.9 3.4 6.8 5 17.4 3.6 23 -0.7 2.9 -1.4 3 -7.3 1.2z"/>
  <path d="M731.4 235.5 c-1.4 -5.7 0.2 -16.3 3.6 -23.1 5.2 -10.7 18.6 -22.6 31.2 -27.9 l3.7 -1.5 -2.9 6.8 c-1.6 3.8 -4 11.4 -5.4 16.9 -2.8 11.3 -5.1 16.5 -9.7 21.7 -3.2 3.7 -11.1 8 -16.6 9.1 -2.9 0.6 -3.3 0.4 -3.9 -2z"/>
  <path d="M419.8 235.3 c0.5 -1 14.1 -31.2 30.2 -67.1 l29.4 -65.3 11.4 0.3 11.5 0.3 29.3 65 c16.2 35.8 29.7 65.8 30 66.8 0.5 1.6 -0.1 1.8 -7.7 1.5 l-8.2 -0.3 -8.7 -19.5 -8.7 -19.5 -38.2 -0.3 -38.2 -0.2 -3.8 8.2 c-2.1 4.6 -6.2 13.6 -9.1 20.1 l-5.2 11.7 -7.5 0 c-6.7 0 -7.3 -0.2 -6.5 -1.7z m101.7 -52.2 c-0.9 -3 -30.6 -68.5 -31.3 -69.3 -0.6 -0.6 -31.2 66 -32 69.7 -0.3 1.3 4.2 1.5 31.8 1.5 30.9 0 32.1 -0.1 31.5 -1.9z"/>
  <path d="M102.2 206.3 c0.6 -12.4 2.8 -17.5 11.7 -26.3 4.7 -4.6 9 -7.7 15.1 -10.7 13.2 -6.5 13.8 -6.5 9.1 0.1 -2.6 3.8 -4.6 8.3 -6.1 13.9 -5.2 19.8 -10.9 27.2 -24 31.1 -3 0.9 -5.6 1.6 -5.8 1.6 -0.2 0 -0.2 -4.4 0 -9.7z"/>
  <path d="M716.6 214.4 c-6.6 -2.1 -11.7 -5.6 -15.4 -10.8 -3.6 -5 -5.3 -9.2 -8.2 -20.3 -1.5 -5.6 -3.5 -10.1 -6.1 -13.9 -4.7 -6.6 -4.1 -6.6 9.1 -0.1 6.1 3 10.4 6.1 15.1 10.7 8.9 8.8 11.1 13.9 11.7 26.3 0.2 5.3 0 9.7 -0.4 9.6 -0.5 0 -3.1 -0.7 -5.8 -1.5z"/>
  <path d="M88.9 187.5 c-5.5 -3.6 -10.8 -10.4 -12.4 -16 -1.1 -3.6 -1.4 -9.5 -1.3 -21 0.1 -8.8 -0.2 -17.6 -0.6 -19.5 -0.8 -3.3 -0.4 -3 5.4 4 8.4 10 14.4 19.4 16.5 25.8 2.7 8.3 0.7 29.3 -2.8 29.1 -0.7 0 -2.8 -1.1 -4.8 -2.4z"/>
  <path d="M729 186.3 c-2.2 -7.1 -2.4 -19.7 -0.5 -25.5 2.1 -6.4 8.1 -15.8 16.5 -25.8 5.8 -7 6.2 -7.3 5.4 -4 -0.4 1.9 -0.7 10.7 -0.6 19.5 0.2 18.7 -0.9 23.9 -6.4 30.4 -3.5 4.1 -10.3 9.1 -12.3 9.1 -0.6 0 -1.5 -1.7 -2.1 -3.7z"/>
  <path d="M110 159.2 c0 -4.8 3.4 -14.5 6.9 -19.6 5.5 -7.9 19.9 -17.4 32 -21 9.2 -2.7 9.9 -2.3 4.9 3.3 -2.4 2.6 -6.6 9.5 -9.5 15.2 -2.8 5.7 -6.7 12.2 -8.6 14.4 -4.9 5.6 -12.5 9.6 -19.8 10.2 l-5.9 0.6 0 -3.1z"/>
  <path d="M702.9 160.6 c-10 -3.5 -15.5 -9.4 -22.4 -23.8 -2.6 -5.4 -6.7 -12 -9.2 -14.8 -5.1 -5.7 -4.5 -6.1 4.8 -3.4 12.1 3.6 26.5 13.1 32 21 3.4 5.1 6.9 14.8 6.9 19.5 0 2.8 -0.2 2.9 -4.2 2.9 -2.4 -0.1 -5.9 -0.7 -7.9 -1.4z"/>
  <path d="M99 139.3 c-8.1 -11.2 -10 -23.2 -6 -38.3 1.1 -4.1 2.3 -11 2.7 -15.3 l0.6 -7.8 2.4 2.3 c4 3.7 11 19.4 12.9 28.6 2.1 10.7 1.3 17.1 -3.2 26.1 -4.9 9.8 -5.4 10 -9.4 4.4z"/>
  <path d="M720.1 141.2 c-7.1 -10 -9.1 -19.9 -6.7 -32.4 1.9 -9.2 8.9 -24.9 12.9 -28.6 l2.4 -2.3 0.6 7.3 c0.3 4 1.5 11.1 2.7 15.8 3.2 12.4 2.6 22.4 -1.8 31 -1.7 3.6 -4.3 7.8 -5.6 9.3 l-2.3 2.9 -2.2 -3z"/>
  <path d="M124 104.7 c0 -18.1 10 -33.3 28.6 -43.6 4.3 -2.4 11.1 -6.2 15 -8.5 l7 -4.2 -4.6 15 c-5.4 17.7 -8.1 23.3 -14.7 30.6 -5.8 6.5 -13 11.2 -21.1 13.9 -9.6 3.3 -10.2 3.1 -10.2 -3.2z"/>
  <path d="M690.6 107.9 c-11.8 -4 -22.8 -13.5 -28.4 -24.4 -1.4 -2.7 -4.6 -11.8 -7.2 -20.1 l-4.6 -15 7 4.2 c3.9 2.3 10.7 6.1 15 8.5 18.6 10.3 28.6 25.5 28.6 43.6 0 4.8 -0.2 5.3 -2.2 5.3 -1.3 -0.1 -5 -1 -8.2 -2.1z"/>
 </g>
</svg>